<svg width="794" height="643" xmlns="http://www.w3.org/2000/svg" xmlns:xlink="http://www.w3.org/1999/xlink" overflow="hidden"><defs><clipPath id="clip0"><rect x="0" y="0" width="794" height="643"/></clipPath></defs><g clip-path="url(#clip0)"><rect x="0" y="0" width="794" height="643.365" fill="#FFFFFF"/><rect x="257.5" y="40.5231" width="169" height="98.0557" stroke="#000000" stroke-width="2.66723" stroke-miterlimit="8" fill="none"/><text font-family="Calibri,Calibri_MSFontService,sans-serif" font-weight="400" font-size="24" transform="matrix(1 0 0 1.00057 277.561 97)">GameService</text><rect x="587.5" y="40.5231" width="168" height="98.0557" stroke="#000000" stroke-width="2.66723" stroke-miterlimit="8" fill="none"/><text font-family="Calibri,Calibri_MSFontService,sans-serif" font-weight="400" font-size="24" transform="matrix(1 0 0 1.00057 642.02 96)">Game</text><rect x="149.5" y="260.648" width="169" height="98.0557" stroke="#000000" stroke-width="2.66723" stroke-miterlimit="8" fill="none"/><text font-family="Calibri,Calibri_MSFontService,sans-serif" font-weight="400" font-size="24" transform="matrix(1 0 0 1.00057 203.423 316)">Player</text><rect x="384.5" y="260.648" width="169" height="98.0557" stroke="#000000" stroke-width="2.66723" stroke-miterlimit="8" fill="none"/><text font-family="Calibri,Calibri_MSFontService,sans-serif" font-weight="400" font-size="24" transform="matrix(1 0 0 1.00057 420.293 302)">Algorithm<tspan font-size="24" x="4.60095" y="28.9835">Manager</tspan></text><rect x="28.5001" y="502.786" width="169" height="98.0557" stroke="#000000" stroke-width="2.66723" stroke-miterlimit="8" fill="none"/><text font-family="Calibri,Calibri_MSFontService,sans-serif" font-weight="400" font-size="24" transform="matrix(1 0 0 1.00057 77.2215 559)">Human</text><rect x="265.5" y="502.786" width="169" height="98.0557" stroke="#000000" stroke-width="2.66723" stroke-miterlimit="8" fill="none"/><text font-family="Calibri,Calibri_MSFontService,sans-serif" font-weight="400" font-size="24" transform="matrix(1 0 0 1.00057 309.402 559)">Uniform</text><rect x="502.5" y="502.786" width="169" height="98.0557" stroke="#000000" stroke-width="2.66723" stroke-miterlimit="8" fill="none"/><text font-family="Calibri,Calibri_MSFontService,sans-serif" font-weight="400" font-size="24" transform="matrix(1 0 0 1.00057 530.49 559)">Valuebased</text><path d="M0 0 160.709 0.500157" stroke="#000000" stroke-width="2.00042" stroke-miterlimit="8" fill="none" fill-rule="evenodd" transform="matrix(1 0 0 -1.00057 426 89.551)"/><path d="M298.694 136.077 298.694 197.497 238 197.497 238 258.917" stroke="#000000" stroke-width="2.00156" stroke-miterlimit="8" fill="none" fill-rule="evenodd"/><path d="M187 358.203 187 403.707" stroke="#000000" stroke-width="2.00042" stroke-miterlimit="8" fill="none" fill-rule="evenodd"/><path d="M0 0 114.407 0.000105009" stroke="#000000" stroke-width="2.00042" stroke-miterlimit="8" fill="none" fill-rule="evenodd" transform="matrix(-1 0 0 1.00057 187.407 403.229)"/><path d="M0 0 0.000105009 98.8718" stroke="#000000" stroke-width="2.00042" stroke-miterlimit="8" fill="none" fill-rule="evenodd" transform="matrix(1 0 0 -1.00057 73 502.157)"/><path d="M0-1.00021 8.00168-1.00021 8.00168 1.00021 0 1.00021ZM14.0029-1.00021 22.0046-1.00021 22.0046 1.00021 14.0029 1.00021ZM28.0059-1.00021 36.0076-1.00021 36.0076 1.00021 28.0059 1.00021ZM42.0088-1.00021 50.0105-1.00021 50.0105 1.00021 42.0088 1.00021ZM56.0118-1.00021 61.9865-1.00021 61.9865 3.0272 59.986 3.0272 59.986 0 60.9862 1.00021 56.0118 1.00021ZM61.9865 9.02846 61.9865 17.0301 59.986 17.0301 59.986 9.02846ZM61.9865 23.0314 61.9865 31.0331 59.986 31.0331 59.986 23.0314ZM61.9865 37.0343 61.9865 45.036 59.986 45.036 59.986 37.0343ZM61.9865 51.0373 61.9865 59.039 59.986 59.039 59.986 51.0373ZM61.9865 65.0402 61.9865 73.0419 59.986 73.0419 59.986 65.0402ZM61.9865 79.0432 61.9865 84.3582 60.9862 83.358 63.6729 83.358 63.6729 85.3584 59.986 85.3584 59.986 79.0432ZM69.6742 83.358 77.6758 83.358 77.6758 85.3584 69.6742 85.3584ZM83.6771 83.358 91.6788 83.358 91.6788 85.3584 83.6771 85.3584ZM97.68 83.358 105.682 83.358 105.682 85.3584 97.68 85.3584ZM108.636 77.6901 121.972 84.3582 108.636 91.0262Z" transform="matrix(1.83697e-16 1.00057 1 -1.83801e-16 384 138.078)"/><path d="M238 358.203 238 462.208" stroke="#000000" stroke-width="2.00042" stroke-miterlimit="8" fill="none" fill-rule="evenodd"/><path d="M0 0 79.6866 0.000105009" stroke="#000000" stroke-width="2.00042" stroke-miterlimit="8" fill="none" fill-rule="evenodd" transform="matrix(-1 0 0 1.00057 317.687 461.262)"/><path d="M0 0 0.000105009 40.4042" stroke="#000000" stroke-width="2.00042" stroke-miterlimit="8" fill="none" fill-rule="evenodd" transform="matrix(1 0 0 -1.00057 318 501.689)"/><path d="M286 358.203 286 443.411" stroke="#000000" stroke-width="2.00042" stroke-miterlimit="8" fill="none" fill-rule="evenodd"/><path d="M0 0 267.341 0.000105009" stroke="#000000" stroke-width="2.00042" stroke-miterlimit="8" fill="none" fill-rule="evenodd" transform="matrix(-1 0 0 1.00057 553.341 443.252)"/><path d="M0 0 0.000105009 59.1906" stroke="#000000" stroke-width="2.00042" stroke-miterlimit="8" fill="none" fill-rule="evenodd" transform="matrix(1 0 0 -1.00057 553 502.476)"/><path d="M425 358.203 425 422.275" stroke="#000000" stroke-width="2.00042" stroke-miterlimit="8" stroke-dasharray="8.00168 6.00126" fill="none" fill-rule="evenodd"/><path d="M0 0 269.993 0.000105009" stroke="#000000" stroke-width="2.00042" stroke-miterlimit="8" stroke-dasharray="8.00168 6.00126" fill="none" fill-rule="evenodd" transform="matrix(-1 0 0 1.00057 425.993 422.24)"/><path d="M1.00023 12.0025 1.00024 20.0042-1.00018 20.0042-1.00019 12.0025ZM1.00024 26.0055 1.00025 34.0071-1.00017 34.0071-1.00018 26.0055ZM1.00026 40.0084 1.00027 48.0101-1.00015 48.0101-1.00016 40.0084ZM1.00028 54.0113 1.00029 62.013-1.00013 62.013-1.00014 54.0113ZM1.0003 68.0143 1.00031 76.016-1.00011 76.016-1.00012 68.0143ZM-6.66805 13.3361 0 0 6.66808 13.3361Z" transform="matrix(1 0 0 -1.00057 156 502.6)"/><path d="M469 358.203 469 462.208" stroke="#000000" stroke-width="2.00042" stroke-miterlimit="8" stroke-dasharray="8.00168 6.00126" fill="none" fill-rule="evenodd"/><path d="M0 0 74.92 0.000105009" stroke="#000000" stroke-width="2.00042" stroke-miterlimit="8" stroke-dasharray="8.00168 6.00126" fill="none" fill-rule="evenodd" transform="matrix(-1 0 0 1.00057 468.92 461.262)"/><path d="M1.00024 12.0025 1.00026 20.0042-1.00016 20.0042-1.00018 12.0025ZM1.00028 26.0055 1.0003 34.0071-1.00012 34.0071-1.00014 26.0055ZM1.00031 40.0084 1.00031 40.4041-1.0001 40.4041-1.00011 40.0084ZM-6.66803 13.3362 0 0 6.6681 13.3361Z" transform="matrix(1 0 0 -1.00057 394 501.689)"/><path d="M522 358.203 522 400.807" stroke="#000000" stroke-width="2.00042" stroke-miterlimit="8" stroke-dasharray="8.00168 6.00126" fill="none" fill-rule="evenodd"/><path d="M0 0 106.089 0.000105009" stroke="#000000" stroke-width="2.00042" stroke-miterlimit="8" stroke-dasharray="8.00168 6.00126" fill="none" fill-rule="evenodd" transform="matrix(-1 0 0 1.00057 628.089 400.227)"/><path d="M629 400.227 629 408.233 627 408.233 627 400.227ZM629 414.238 629 422.244 627 422.244 627 414.238ZM629 428.249 629 436.255 627 436.255 627 428.249ZM629 442.26 629 450.266 627 450.266 627 442.26ZM629 456.271 629 464.277 627 464.277 627 456.271ZM629 470.282 629 478.288 627 478.288 627 470.282ZM629 484.293 629 490.046 627 490.046 627 484.293ZM634.668 488.711 628 502.055 621.332 488.711Z"/><text font-family="Calibri,Calibri_MSFontService,sans-serif" font-weight="400" font-size="24" transform="matrix(1 0 0 1.00057 440.862 79)">1<tspan font-size="24" x="117.865" y="0">1</tspan><tspan font-size="24" x="-160.533" y="83.9523">1</tspan><tspan font-size="24" x="-220.699" y="175.9">*</tspan><tspan font-size="24" x="-293.432" y="302.828">0..1</tspan><tspan font-size="24" x="-407.689" y="411.766">0..1</tspan><tspan font-size="24" x="-241.958" y="302.828">0..1</tspan><tspan font-size="24" x="-147.545" y="302.828">0..1</tspan><tspan font-size="24" x="-166.079" y="413.765">0..1</tspan><tspan font-size="24" x="74.8262" y="415.764">0..1</tspan></text></g></svg>