<svg width="945" height="643" xmlns="http://www.w3.org/2000/svg" xmlns:xlink="http://www.w3.org/1999/xlink" overflow="hidden"><defs><clipPath id="clip0"><rect x="0" y="0" width="945" height="643"/></clipPath></defs><g clip-path="url(#clip0)"><rect x="0" y="0" width="945" height="643.5" fill="#FFFFFF"/><rect x="381.5" y="42.5331" width="169" height="98.0763" stroke="#000000" stroke-width="2.66667" stroke-miterlimit="8" fill="none"/><text font-family="Calibri,Calibri_MSFontService,sans-serif" font-weight="400" font-size="24" transform="matrix(1 0 0 1.00078 401.578 99)">GameService</text><rect x="711.5" y="41.5323" width="168" height="98.0763" stroke="#000000" stroke-width="2.66667" stroke-miterlimit="8" fill="none"/><text font-family="Calibri,Calibri_MSFontService,sans-serif" font-weight="400" font-size="24" transform="matrix(1 0 0 1.00078 765.961 98)">Game</text><rect x="273.5" y="261.704" width="169" height="98.0763" stroke="#000000" stroke-width="2.66667" stroke-miterlimit="8" fill="none"/><text font-family="Calibri,Calibri_MSFontService,sans-serif" font-weight="400" font-size="24" transform="matrix(1 0 0 1.00078 327.455 318)">Player</text><rect x="508.5" y="261.704" width="169" height="98.0763" stroke="#000000" stroke-width="2.66667" stroke-miterlimit="8" fill="none"/><text font-family="Calibri,Calibri_MSFontService,sans-serif" font-weight="400" font-size="24" transform="matrix(1 0 0 1.00078 544.28 304)">Algorithm<tspan font-size="24" x="4.60004" y="28.9774">Manager</tspan></text><rect x="152.5" y="504.893" width="169" height="98.0763" stroke="#000000" stroke-width="2.66667" stroke-miterlimit="8" fill="none"/><text font-family="Calibri,Calibri_MSFontService,sans-serif" font-weight="400" font-size="24" transform="matrix(1 0 0 1.00078 201.281 561)">Human</text><rect x="389.5" y="504.893" width="169" height="98.0763" stroke="#000000" stroke-width="2.66667" stroke-miterlimit="8" fill="none"/><text font-family="Calibri,Calibri_MSFontService,sans-serif" font-weight="400" font-size="24" transform="matrix(1 0 0 1.00078 433.412 561)">Uniform</text><rect x="626.5" y="504.893" width="169" height="98.0763" stroke="#000000" stroke-width="2.66667" stroke-miterlimit="8" fill="none"/><text font-family="Calibri,Calibri_MSFontService,sans-serif" font-weight="400" font-size="24" transform="matrix(1 0 0 1.00078 654.454 561)">Valuebased</text><path d="M0 0 160.675 0.500052" stroke="#000000" stroke-width="2" stroke-miterlimit="8" fill="none" fill-rule="evenodd" transform="matrix(1 0 0 -1.00078 550 90.5705)"/><path d="M422.681 138.107 422.681 199.527 362 199.527 362 260.948" stroke="#000000" stroke-width="2.00156" stroke-miterlimit="8" fill="none" fill-rule="evenodd"/><path d="M311 359.279 311 404.783" stroke="#000000" stroke-width="2" stroke-miterlimit="8" fill="none" fill-rule="evenodd"/><path d="M0 0 114.383 0.000104987" stroke="#000000" stroke-width="2" stroke-miterlimit="8" fill="none" fill-rule="evenodd" transform="matrix(-1 0 0 1.00078 311.383 405.315)"/><path d="M0 0 0.000104987 98.851" stroke="#000000" stroke-width="2" stroke-miterlimit="8" fill="none" fill-rule="evenodd" transform="matrix(1 0 0 -1.00078 197 504.243)"/><path d="M0-1 8-1 8 1 0 1ZM14-1 22-1 22 1 14 1ZM28-1 36-1 36 1 28 1ZM42-1 50-1 50 1 42 1ZM56-1 61.9734-1 61.9734 3.02656 59.9734 3.02656 59.9734 0 60.9734 1 56 1ZM61.9734 9.02656 61.9734 17.0266 59.9734 17.0266 59.9734 9.02656ZM61.9734 23.0266 61.9734 31.0266 59.9734 31.0266 59.9734 23.0266ZM61.9734 37.0266 61.9734 45.0266 59.9734 45.0266 59.9734 37.0266ZM61.9734 51.0266 61.9734 59.0266 59.9734 59.0266 59.9734 51.0266ZM61.9734 65.0266 61.9734 73.0266 59.9734 73.0266 59.9734 65.0266ZM61.9734 79.0266 61.9734 84.3405 60.9734 83.3405 63.6595 83.3405 63.6595 85.3405 59.9734 85.3405 59.9734 79.0266ZM69.6595 83.3405 77.6595 83.3405 77.6595 85.3405 69.6595 85.3405ZM83.6595 83.3405 91.6595 83.3405 91.6595 85.3405 83.6595 85.3405ZM97.6595 83.3405 105.66 83.3405 105.66 85.3405 97.6595 85.3405ZM108.614 77.6738 121.947 84.3405 108.614 91.0071Z" transform="matrix(1.83697e-16 1.00078 1 -1.8384e-16 508 139.108)"/><path d="M362 359.279 362 463.284" stroke="#000000" stroke-width="2" stroke-miterlimit="8" fill="none" fill-rule="evenodd"/><path d="M0 0 79.6699 0.000104987" stroke="#000000" stroke-width="2" stroke-miterlimit="8" fill="none" fill-rule="evenodd" transform="matrix(-1 0 0 1.00078 441.67 463.36)"/><path d="M0 0 0.000104987 40.3957" stroke="#000000" stroke-width="2" stroke-miterlimit="8" fill="none" fill-rule="evenodd" transform="matrix(1 0 0 -1.00078 442 503.787)"/><path d="M410 359.279 410 444.487" stroke="#000000" stroke-width="2" stroke-miterlimit="8" fill="none" fill-rule="evenodd"/><path d="M0 0 267.285 0.000104987" stroke="#000000" stroke-width="2" stroke-miterlimit="8" fill="none" fill-rule="evenodd" transform="matrix(-1 0 0 1.00078 677.285 444.346)"/><path d="M0 0 0.000104987 59.1782" stroke="#000000" stroke-width="2" stroke-miterlimit="8" fill="none" fill-rule="evenodd" transform="matrix(1 0 0 -1.00078 677 503.57)"/><path d="M549 359.279 549 423.351" stroke="#000000" stroke-width="2" stroke-miterlimit="8" stroke-dasharray="8 6" fill="none" fill-rule="evenodd"/><path d="M0 0 269.936 0.000104987" stroke="#000000" stroke-width="2" stroke-miterlimit="8" stroke-dasharray="8 6" fill="none" fill-rule="evenodd" transform="matrix(-1 0 0 1.00078 549.936 423.329)"/><path d="M1.00002 12 1.00003 20-0.999974 20-0.999984 12ZM1.00003 26 1.00004 34-0.999955 34-0.999966 26ZM1.00005 40 1.00006 48-0.999937 48-0.999948 40ZM1.00007 54 1.00008 62-0.999919 62-0.999929 54ZM1.00009 68 1.0001 76-0.999901 76-0.999911 68ZM-6.66665 13.3333 0 0 6.66668 13.3333Z" transform="matrix(1 0 0 -1.00078 280 503.69)"/><path d="M593 359.279 593 463.284" stroke="#000000" stroke-width="2" stroke-miterlimit="8" stroke-dasharray="8 6" fill="none" fill-rule="evenodd"/><path d="M0 0 74.9043 0.000104987" stroke="#000000" stroke-width="2" stroke-miterlimit="8" stroke-dasharray="8 6" fill="none" fill-rule="evenodd" transform="matrix(-1 0 0 1.00078 592.904 463.36)"/><path d="M1.00003 12 1.00005 20-0.999948 20-0.999969 12ZM1.00007 26 1.00009 34-0.999912 34-0.999932 26ZM1.0001 40 1.0001 40.3956-0.999895 40.3956-0.999896 40ZM-6.66663 13.3334 0 0 6.6667 13.3333Z" transform="matrix(1 0 0 -1.00078 518 503.787)"/><path d="M646 359.279 646 401.883" stroke="#000000" stroke-width="2" stroke-miterlimit="8" stroke-dasharray="8 6" fill="none" fill-rule="evenodd"/><path d="M0 0 106.067 0.000104987" stroke="#000000" stroke-width="2" stroke-miterlimit="8" stroke-dasharray="8 6" fill="none" fill-rule="evenodd" transform="matrix(-1 0 0 1.00078 752.067 402.313)"/><path d="M753 402.313 753 410.319 751 410.319 751 402.313ZM753 416.324 753 424.33 751 424.33 751 416.324ZM753 430.335 753 438.341 751 438.341 751 430.335ZM753 444.346 753 452.352 751 452.352 751 444.346ZM753 458.356 753 466.363 751 466.363 751 458.356ZM753 472.367 753 480.374 751 480.374 751 472.367ZM753 486.378 753 492.131 751 492.131 751 486.378ZM758.667 490.797 752 504.141 745.333 490.797Z"/><text font-family="Calibri,Calibri_MSFontService,sans-serif" font-weight="400" font-size="24" transform="matrix(1 0 0 1.00078 564.845 81)">1<tspan font-size="24" x="117.84" y="0">1</tspan><tspan font-size="24" x="-160.499" y="83.9347">1</tspan><tspan font-size="24" x="-220.652" y="175.863">*</tspan><tspan font-size="24" x="-293.37" y="302.764">0..1</tspan><tspan font-size="24" x="-407.604" y="411.68">0..1</tspan><tspan font-size="24" x="-241.907" y="302.764">0..1</tspan><tspan font-size="24" x="-147.514" y="302.764">0..1</tspan><tspan font-size="24" x="-166.045" y="413.678">0..1</tspan><tspan font-size="24" x="74.8105" y="415.677">0..1</tspan></text><rect x="52.5001" y="41.5323" width="169" height="98.0763" stroke="#000000" stroke-width="2.66667" stroke-miterlimit="8" fill="none"/><text font-family="Calibri,Calibri_MSFontService,sans-serif" font-weight="400" font-size="24" transform="matrix(1 0 0 1.00078 71.1249 83)">PlayerScores-<tspan font-size="24" x="12.8067" y="28.9774">Repository</tspan></text><path d="M0 0 160.675 0.500052" stroke="#000000" stroke-width="2" stroke-miterlimit="8" fill="none" fill-rule="evenodd" transform="matrix(1 0 0 -1.00078 223 91.5713)"/><text font-family="Calibri,Calibri_MSFontService,sans-serif" font-weight="400" font-size="24" transform="matrix(1 0 0 1.00078 238.393 82)">1<tspan font-size="24" x="117.84" y="0">1</tspan></text></g></svg>