<svg width="907" height="302" xmlns="http://www.w3.org/2000/svg" xmlns:xlink="http://www.w3.org/1999/xlink" overflow="hidden"><defs><clipPath id="clip0"><rect x="0" y="0" width="907" height="302"/></clipPath><clipPath id="clip1"><rect x="245" y="0" width="165" height="165"/></clipPath><clipPath id="clip2"><rect x="245" y="0" width="165" height="165"/></clipPath><clipPath id="clip3"><rect x="245" y="0" width="165" height="165"/></clipPath><clipPath id="clip4"><rect x="473" y="0" width="165" height="165"/></clipPath><clipPath id="clip5"><rect x="473" y="0" width="165" height="165"/></clipPath><clipPath id="clip6"><rect x="473" y="0" width="165" height="165"/></clipPath><clipPath id="clip7"><rect x="17" y="0" width="165" height="165"/></clipPath><clipPath id="clip8"><rect x="17" y="0" width="165" height="165"/></clipPath><clipPath id="clip9"><rect x="17" y="0" width="165" height="165"/></clipPath><clipPath id="clip10"><rect x="701" y="0" width="165" height="165"/></clipPath><clipPath id="clip11"><rect x="701" y="0" width="165" height="165"/></clipPath><clipPath id="clip12"><rect x="701" y="0" width="165" height="165"/></clipPath><clipPath id="clip13"><rect x="473" y="155" width="165" height="166"/></clipPath><clipPath id="clip14"><rect x="473" y="155" width="165" height="166"/></clipPath><clipPath id="clip15"><rect x="473" y="155" width="165" height="166"/></clipPath></defs><g clip-path="url(#clip0)"><rect x="0" y="0" width="907" height="301.723" fill="#FFFFFF"/><g clip-path="url(#clip1)"><g clip-path="url(#clip2)"><g clip-path="url(#clip3)"><path d="M25.625 129.869 138.375 129.869C142.144 129.857 145.196 126.805 145.208 123.036L145.208 54.682C145.196 50.9131 142.144 47.8608 138.375 47.8487L80.2917 47.8487 61.5 35.3779C60.4244 34.5541 59.0953 34.1313 57.7417 34.182L25.625 34.182C21.8557 34.1933 18.8029 37.2461 18.7917 41.0154L18.7917 123.034C18.8019 126.804 21.855 129.858 25.625 129.869ZM22.2083 41.012C22.2083 39.1249 23.738 37.5953 25.625 37.5953L57.7417 37.5953C58.2948 37.5563 58.8458 37.6978 59.3116 37.9985L59.4551 38.118 59.6106 38.2205 78.4022 50.6914 79.2564 51.262 138.375 51.262C140.262 51.262 141.792 52.7916 141.792 54.6786L141.792 123.034C141.792 124.921 140.262 126.451 138.375 126.451L25.625 126.451C23.738 126.451 22.2083 124.921 22.2083 123.034Z" transform="matrix(1 0 0 1.00517 245 0)"/></g></g></g><text font-family="Calibri,Calibri_MSFontService,sans-serif" font-weight="400" font-size="24" transform="matrix(1 0 0 0.999081 287.348 90)">services</text><g clip-path="url(#clip4)"><g clip-path="url(#clip5)"><g clip-path="url(#clip6)"><path d="M25.625 129.869 138.375 129.869C142.144 129.857 145.196 126.805 145.208 123.036L145.208 54.682C145.196 50.9131 142.144 47.8608 138.375 47.8487L80.2917 47.8487 61.5 35.3779C60.4244 34.5541 59.0953 34.1313 57.7417 34.182L25.625 34.182C21.8557 34.1933 18.8029 37.2461 18.7917 41.0154L18.7917 123.034C18.8019 126.804 21.855 129.858 25.625 129.869ZM22.2083 41.012C22.2083 39.1249 23.738 37.5953 25.625 37.5953L57.7417 37.5953C58.2948 37.5563 58.8458 37.6978 59.3116 37.9985L59.4551 38.118 59.6106 38.2205 78.4022 50.6914 79.2564 51.262 138.375 51.262C140.262 51.262 141.792 52.7916 141.792 54.6786L141.792 123.034C141.792 124.921 140.262 126.451 138.375 126.451L25.625 126.451C23.738 126.451 22.2083 124.921 22.2083 123.034Z" transform="matrix(1 0 0 1.00517 473 0)"/></g></g></g><text font-family="Calibri,Calibri_MSFontService,sans-serif" font-weight="400" font-size="24" transform="matrix(1 0 0 0.999081 517.776 90)">entities</text><g clip-path="url(#clip7)"><g clip-path="url(#clip8)"><g clip-path="url(#clip9)"><path d="M25.625 129.869 138.375 129.869C142.144 129.857 145.196 126.805 145.208 123.036L145.208 54.682C145.196 50.9131 142.144 47.8608 138.375 47.8487L80.2917 47.8487 61.5 35.3779C60.4244 34.5541 59.0953 34.1313 57.7417 34.182L25.625 34.182C21.8557 34.1933 18.8029 37.2461 18.7917 41.0154L18.7917 123.034C18.8019 126.804 21.855 129.858 25.625 129.869ZM22.2083 41.012C22.2083 39.1249 23.738 37.5953 25.625 37.5953L57.7417 37.5953C58.2948 37.5563 58.8458 37.6978 59.3116 37.9985L59.4551 38.118 59.6106 38.2205 78.4022 50.6914 79.2564 51.262 138.375 51.262C140.262 51.262 141.792 52.7916 141.792 54.6786L141.792 123.034C141.792 124.921 140.262 126.451 138.375 126.451L25.625 126.451C23.738 126.451 22.2083 124.921 22.2083 123.034Z" transform="matrix(1 0 0 1.00517 17 0)"/></g></g></g><text font-family="Calibri,Calibri_MSFontService,sans-serif" font-weight="400" font-size="24" transform="matrix(1 0 0 0.999081 89.161 90)">ui</text><path d="M0.00942314-0.998853 8.00025-0.923468 7.9814 1.07424-0.00942314 0.998853ZM13.9934-0.866929 21.9842-0.791544 21.9653 1.20616 13.9745 1.13078ZM27.9773-0.735005 35.9681-0.65962 35.9493 1.33809 27.9585 1.2627ZM41.9613-0.603081 49.9521-0.527696 49.9332 1.47001 41.9424 1.39462ZM55.9452-0.471157 63.936-0.395772 63.9172 1.60193 55.9263 1.52655ZM69.9291-0.339233 77.92-0.263848 77.9011 1.73386 69.9103 1.65847ZM83.9131-0.207309 91.9039-0.131924 91.8851 1.86578 83.8942 1.7904ZM92.6279-5.78576 105.883 0.998897 92.5023 7.53228Z" transform="matrix(1.00092 0 0 -1 160 84.9217)"/><path d="M0.00942314-0.998853 8.00025-0.923468 7.9814 1.07424-0.00942314 0.998853ZM13.9934-0.866929 21.9842-0.791544 21.9653 1.20616 13.9745 1.13078ZM27.9773-0.735005 35.9681-0.65962 35.9493 1.33809 27.9585 1.2627ZM41.9613-0.603081 49.9521-0.527696 49.9332 1.47001 41.9424 1.39462ZM55.9452-0.471157 63.936-0.395772 63.9172 1.60193 55.9263 1.52655ZM69.9291-0.339233 77.92-0.263848 77.9011 1.73386 69.9103 1.65847ZM83.9131-0.207309 91.9039-0.131924 91.8851 1.86578 83.8942 1.7904ZM92.6279-5.78576 105.883 0.998897 92.5023 7.53228Z" transform="matrix(1.00092 0 0 -1 388 82.9236)"/><g clip-path="url(#clip10)"><g clip-path="url(#clip11)"><g clip-path="url(#clip12)"><path d="M25.625 129.869 138.375 129.869C142.144 129.857 145.196 126.805 145.208 123.036L145.208 54.682C145.196 50.9131 142.144 47.8608 138.375 47.8487L80.2917 47.8487 61.5 35.3779C60.4244 34.5541 59.0953 34.1313 57.7417 34.182L25.625 34.182C21.8557 34.1933 18.8029 37.2461 18.7917 41.0154L18.7917 123.034C18.8019 126.804 21.855 129.858 25.625 129.869ZM22.2083 41.012C22.2083 39.1249 23.738 37.5953 25.625 37.5953L57.7417 37.5953C58.2948 37.5563 58.8458 37.6978 59.3116 37.9985L59.4551 38.118 59.6106 38.2205 78.4022 50.6914 79.2564 51.262 138.375 51.262C140.262 51.262 141.792 52.7916 141.792 54.6786L141.792 123.034C141.792 124.921 140.262 126.451 138.375 126.451L25.625 126.451C23.738 126.451 22.2083 124.921 22.2083 123.034Z" transform="matrix(1 0 0 1.00517 701 0)"/></g></g></g><text font-family="Calibri,Calibri_MSFontService,sans-serif" font-weight="400" font-size="24" transform="matrix(1 0 0 0.999081 730.96 90)">algorithms</text><path d="M0.00942314-0.998853 8.00025-0.923468 7.9814 1.07424-0.00942314 0.998853ZM13.9934-0.866929 21.9842-0.791544 21.9653 1.20616 13.9745 1.13078ZM27.9773-0.735005 35.9681-0.65962 35.9493 1.33809 27.9585 1.2627ZM41.9613-0.603081 49.9521-0.527696 49.9332 1.47001 41.9424 1.39462ZM55.9452-0.471157 63.936-0.395772 63.9172 1.60193 55.9263 1.52655ZM69.9291-0.339233 77.92-0.263848 77.9011 1.73386 69.9103 1.65847ZM83.9131-0.207309 91.9039-0.131924 91.8851 1.86578 83.8942 1.7904ZM92.6279-5.78576 105.883 0.998897 92.5023 7.53228Z" transform="matrix(1.00092 0 0 -1 616 82.9236)"/><g clip-path="url(#clip13)"><g clip-path="url(#clip14)"><g clip-path="url(#clip15)"><path d="M25.625 129.869 138.375 129.869C142.144 129.857 145.196 126.805 145.208 123.036L145.208 54.682C145.196 50.9131 142.144 47.8608 138.375 47.8487L80.2917 47.8487 61.5 35.3779C60.4244 34.5541 59.0953 34.1313 57.7417 34.182L25.625 34.182C21.8557 34.1933 18.8029 37.2461 18.7917 41.0154L18.7917 123.034C18.8019 126.804 21.855 129.858 25.625 129.869ZM22.2083 41.012C22.2083 39.1249 23.738 37.5953 25.625 37.5953L57.7417 37.5953C58.2948 37.5563 58.8458 37.6978 59.3116 37.9985L59.4551 38.118 59.6106 38.2205 78.4022 50.6914 79.2564 51.262 138.375 51.262C140.262 51.262 141.792 52.7916 141.792 54.6786L141.792 123.034C141.792 124.921 140.262 126.451 138.375 126.451L25.625 126.451C23.738 126.451 22.2083 124.921 22.2083 123.034Z" transform="matrix(1 0 0 1.00517 473 155.857)"/></g></g></g><text font-family="Calibri,Calibri_MSFontService,sans-serif" font-weight="400" font-size="24" transform="matrix(1 0 0 0.999081 518.875 235)">Reposi<tspan font-size="24" x="64.7347" y="0">-</tspan><tspan font-size="24" x="8.23846" y="29.0267">tories</tspan></text><path d="M0 0 52.9416 0.499606" stroke="#000000" stroke-width="1.99779" stroke-miterlimit="8" stroke-dasharray="7.99118 5.99338" fill="none" fill-rule="evenodd" transform="matrix(1.00092 0 0 -1 388 105.403)"/><path d="M440 104.904 440 237.721" stroke="#000000" stroke-width="1.99963" stroke-miterlimit="8" stroke-dasharray="7.99853 5.9989" fill="none" fill-rule="evenodd"/><path d="M1.92631e-06-0.998897 7.99118-0.998882 7.99118 0.998913-1.92631e-06 0.998897ZM13.9846-0.998871 21.9757-0.998855 21.9757 0.99894 13.9846 0.998924ZM27.9691-0.998843 35.9603-0.998828 35.9603 0.998967 27.9691 0.998951ZM41.9537-0.998817 42.3948-0.998816 42.3948 0.998979 41.9537 0.998978ZM41.0629-6.65924 54.3816 0.000104871 41.0629 6.6594Z" transform="matrix(1.00092 0 0 -1 439 236.782)"/></g></svg>