<svg width="605" height="151" xmlns="http://www.w3.org/2000/svg" xmlns:xlink="http://www.w3.org/1999/xlink" overflow="hidden"><defs><clipPath id="clip0"><rect x="0" y="0" width="605" height="151"/></clipPath><clipPath id="clip1"><rect x="219" y="-13" width="167" height="164"/></clipPath><clipPath id="clip2"><rect x="219" y="-13" width="167" height="164"/></clipPath><clipPath id="clip3"><rect x="219" y="-13" width="167" height="164"/></clipPath><clipPath id="clip4"><rect x="448" y="-13" width="165" height="164"/></clipPath><clipPath id="clip5"><rect x="448" y="-13" width="165" height="164"/></clipPath><clipPath id="clip6"><rect x="448" y="-13" width="165" height="164"/></clipPath><clipPath id="clip7"><rect x="-8" y="-13" width="165" height="164"/></clipPath><clipPath id="clip8"><rect x="-8" y="-13" width="165" height="164"/></clipPath><clipPath id="clip9"><rect x="-8" y="-13" width="165" height="164"/></clipPath></defs><g clip-path="url(#clip0)"><rect x="0" y="0" width="605" height="150.75" fill="#FFFFFF"/><g clip-path="url(#clip1)"><g clip-path="url(#clip2)"><g clip-path="url(#clip3)"><path d="M25.5827 129.655 138.146 129.655C141.909 129.643 144.956 126.595 144.968 122.833L144.968 54.5917C144.956 50.829 141.909 47.7817 138.146 47.7696L80.159 47.7696 61.3984 35.3194C60.3246 34.497 58.9977 34.0749 57.6462 34.1256L25.5827 34.1256C21.8196 34.1368 18.7719 37.1846 18.7606 40.9476L18.7606 122.831C18.7708 126.595 21.8189 129.643 25.5827 129.655ZM22.1716 40.9442C22.1716 39.0603 23.6987 37.5332 25.5827 37.5332L57.6462 37.5332C58.1985 37.4943 58.7485 37.6355 59.2136 37.9357L59.3569 38.0551 59.5121 38.1574 78.2727 50.6076 79.1255 51.1772 138.146 51.1772C140.03 51.1772 141.557 52.7044 141.557 54.5883L141.557 122.831C141.557 124.715 140.03 126.242 138.146 126.242L25.5827 126.242C23.6987 126.242 22.1716 124.715 22.1716 122.831Z" transform="matrix(1.00776 0 0 1 220 -12.9785)"/></g></g></g><text font-family="Calibri,Calibri_MSFontService,sans-serif" font-weight="400" font-size="24" transform="matrix(1 0 0 0.998347 262.868 77)">services</text><g clip-path="url(#clip4)"><g clip-path="url(#clip5)"><g clip-path="url(#clip6)"><path d="M25.5827 129.655 138.146 129.655C141.909 129.643 144.956 126.595 144.968 122.833L144.968 54.5917C144.956 50.829 141.909 47.7817 138.146 47.7696L80.159 47.7696 61.3984 35.3194C60.3246 34.497 58.9977 34.0749 57.6462 34.1256L25.5827 34.1256C21.8196 34.1368 18.7719 37.1846 18.7606 40.9476L18.7606 122.831C18.7708 126.595 21.8189 129.643 25.5827 129.655ZM22.1716 40.9442C22.1716 39.0603 23.6987 37.5332 25.5827 37.5332L57.6462 37.5332C58.1985 37.4943 58.7485 37.6355 59.2136 37.9357L59.3569 38.0551 59.5121 38.1574 78.2727 50.6076 79.1255 51.1772 138.146 51.1772C140.03 51.1772 141.557 52.7044 141.557 54.5883L141.557 122.831C141.557 124.715 140.03 126.242 138.146 126.242L25.5827 126.242C23.6987 126.242 22.1716 124.715 22.1716 122.831Z" transform="matrix(1.00776 0 0 1 448 -12.9785)"/></g></g></g><text font-family="Calibri,Calibri_MSFontService,sans-serif" font-weight="400" font-size="24" transform="matrix(1 0 0 0.998347 493.465 77)">entities</text><g clip-path="url(#clip7)"><g clip-path="url(#clip8)"><g clip-path="url(#clip9)"><path d="M25.5827 129.655 138.146 129.655C141.909 129.643 144.956 126.595 144.968 122.833L144.968 54.5917C144.956 50.829 141.909 47.7817 138.146 47.7696L80.159 47.7696 61.3984 35.3194C60.3246 34.497 58.9977 34.0749 57.6462 34.1256L25.5827 34.1256C21.8196 34.1368 18.7719 37.1846 18.7606 40.9476L18.7606 122.831C18.7708 126.595 21.8189 129.643 25.5827 129.655ZM22.1716 40.9442C22.1716 39.0603 23.6987 37.5332 25.5827 37.5332L57.6462 37.5332C58.1985 37.4943 58.7485 37.6355 59.2136 37.9357L59.3569 38.0551 59.5121 38.1574 78.2727 50.6076 79.1255 51.1772 138.146 51.1772C140.03 51.1772 141.557 52.7044 141.557 54.5883L141.557 122.831C141.557 124.715 140.03 126.242 138.146 126.242L25.5827 126.242C23.6987 126.242 22.1716 124.715 22.1716 122.831Z" transform="matrix(1.00776 0 0 1 -8 -12.9785)"/></g></g></g><text font-family="Calibri,Calibri_MSFontService,sans-serif" font-weight="400" font-size="24" transform="matrix(1 0 0 0.998347 64.5356 77)">ui</text><path d="M0.00942314-0.998853 8.00025-0.923468 7.9814 1.07424-0.00942314 0.998853ZM13.9934-0.866929 21.9842-0.791544 21.9653 1.20616 13.9745 1.13078ZM27.9773-0.735005 35.9681-0.65962 35.9493 1.33809 27.9585 1.2627ZM41.9613-0.603081 49.9521-0.527696 49.9332 1.47001 41.9424 1.39462ZM55.9452-0.471157 63.936-0.395772 63.9172 1.60193 55.9263 1.52655ZM69.9291-0.339233 77.92-0.263848 77.9011 1.73386 69.9103 1.65847ZM83.9131-0.207309 91.9039-0.131924 91.8851 1.86578 83.8942 1.7904ZM92.6279-5.78576 105.883 0.998897 92.5023 7.53228Z" transform="matrix(1.00166 0 0 -1 136 70.8832)"/><path d="M0.00942314-0.998853 8.00025-0.923468 7.9814 1.07424-0.00942314 0.998853ZM13.9934-0.866929 21.9842-0.791544 21.9653 1.20616 13.9745 1.13078ZM27.9773-0.735005 35.9681-0.65962 35.9493 1.33809 27.9585 1.2627ZM41.9613-0.603081 49.9521-0.527696 49.9332 1.47001 41.9424 1.39462ZM55.9452-0.471157 63.936-0.395772 63.9172 1.60193 55.9263 1.52655ZM69.9291-0.339233 77.92-0.263848 77.9011 1.73386 69.9103 1.65847ZM83.9131-0.207309 91.9039-0.131924 91.8851 1.86578 83.8942 1.7904ZM92.6279-5.78576 105.883 0.998897 92.5023 7.53228Z" transform="matrix(1.00166 0 0 -1 364 69.8849)"/></g></svg>