<svg width="1058" height="151" xmlns="http://www.w3.org/2000/svg" xmlns:xlink="http://www.w3.org/1999/xlink" overflow="hidden"><defs><clipPath id="clip0"><rect x="0" y="0" width="1058" height="151"/></clipPath><clipPath id="clip1"><rect x="307" y="-17" width="186" height="185"/></clipPath><clipPath id="clip2"><rect x="307" y="-17" width="186" height="185"/></clipPath><clipPath id="clip3"><rect x="307" y="-17" width="186" height="185"/></clipPath><clipPath id="clip4"><rect x="564" y="-17" width="186" height="185"/></clipPath><clipPath id="clip5"><rect x="564" y="-17" width="186" height="185"/></clipPath><clipPath id="clip6"><rect x="564" y="-17" width="186" height="185"/></clipPath><clipPath id="clip7"><rect x="50" y="-17" width="186" height="185"/></clipPath><clipPath id="clip8"><rect x="50" y="-17" width="186" height="185"/></clipPath><clipPath id="clip9"><rect x="50" y="-17" width="186" height="185"/></clipPath><clipPath id="clip10"><rect x="821" y="-15" width="186" height="185"/></clipPath><clipPath id="clip11"><rect x="821" y="-15" width="186" height="185"/></clipPath><clipPath id="clip12"><rect x="821" y="-15" width="186" height="185"/></clipPath></defs><g clip-path="url(#clip0)"><rect x="0" y="0" width="1058" height="150.881" fill="#FFFFFF"/><g clip-path="url(#clip1)"><g clip-path="url(#clip2)"><g clip-path="url(#clip3)"><path d="M28.8835 146.383 155.971 146.383C160.219 146.37 163.659 142.929 163.673 138.681L163.673 61.6354C163.659 57.3872 160.219 53.9468 155.971 53.9331L90.5015 53.9331 69.3203 39.8765C68.108 38.948 66.6099 38.4714 65.0841 38.5286L28.8835 38.5286C24.6349 38.5413 21.1939 41.9823 21.1812 46.2309L21.1812 138.679C21.1928 142.929 24.6341 146.371 28.8835 146.383ZM25.0323 46.227C25.0323 44.1001 26.7565 42.3759 28.8835 42.3759L65.0841 42.3759C65.7076 42.332 66.3286 42.4914 66.8537 42.8303L67.0154 42.9651 67.1907 43.0807 88.3719 57.1373 89.3347 57.7804 155.971 57.7804C158.098 57.7804 159.822 59.5046 159.822 61.6316L159.822 138.679C159.822 140.806 158.098 142.53 155.971 142.53L28.8835 142.53C26.7565 142.53 25.0323 140.806 25.0323 138.679Z" transform="matrix(1.00079 0 0 1 308 -16.9866)"/></g></g></g><text font-family="Calibri,Calibri_MSFontService,sans-serif" font-weight="400" font-size="27" transform="matrix(1 0 0 0.999212 355.674 84)">services</text><g clip-path="url(#clip4)"><g clip-path="url(#clip5)"><g clip-path="url(#clip6)"><path d="M28.8835 146.383 155.971 146.383C160.219 146.37 163.659 142.929 163.673 138.681L163.673 61.6354C163.659 57.3872 160.219 53.9468 155.971 53.9331L90.5015 53.9331 69.3203 39.8765C68.108 38.948 66.6099 38.4714 65.0841 38.5286L28.8835 38.5286C24.6349 38.5413 21.1939 41.9823 21.1812 46.2309L21.1812 138.679C21.1928 142.929 24.6341 146.371 28.8835 146.383ZM25.0323 46.227C25.0323 44.1001 26.7565 42.3759 28.8835 42.3759L65.0841 42.3759C65.7076 42.332 66.3286 42.4914 66.8537 42.8303L67.0154 42.9651 67.1907 43.0807 88.3719 57.1373 89.3347 57.7804 155.971 57.7804C158.098 57.7804 159.822 59.5046 159.822 61.6316L159.822 138.679C159.822 140.806 158.098 142.53 155.971 142.53L28.8835 142.53C26.7565 142.53 25.0323 140.806 25.0323 138.679Z" transform="matrix(1.00079 0 0 1 564 -16.9866)"/></g></g></g><text font-family="Calibri,Calibri_MSFontService,sans-serif" font-weight="400" font-size="27" transform="matrix(1 0 0 0.999212 614.96 84)">entities</text><g clip-path="url(#clip7)"><g clip-path="url(#clip8)"><g clip-path="url(#clip9)"><path d="M28.8835 146.383 155.971 146.383C160.219 146.37 163.659 142.929 163.673 138.681L163.673 61.6354C163.659 57.3872 160.219 53.9468 155.971 53.9331L90.5015 53.9331 69.3203 39.8765C68.108 38.948 66.6099 38.4714 65.0841 38.5286L28.8835 38.5286C24.6349 38.5413 21.1939 41.9823 21.1812 46.2309L21.1812 138.679C21.1928 142.929 24.6341 146.371 28.8835 146.383ZM25.0323 46.227C25.0323 44.1001 26.7565 42.3759 28.8835 42.3759L65.0841 42.3759C65.7076 42.332 66.3286 42.4914 66.8537 42.8303L67.0154 42.9651 67.1907 43.0807 88.3719 57.1373 89.3347 57.7804 155.971 57.7804C158.098 57.7804 159.822 59.5046 159.822 61.6316L159.822 138.679C159.822 140.806 158.098 142.53 155.971 142.53L28.8835 142.53C26.7565 142.53 25.0323 140.806 25.0323 138.679Z" transform="matrix(1.00079 0 0 1 51 -16.9866)"/></g></g></g><text font-family="Calibri,Calibri_MSFontService,sans-serif" font-weight="400" font-size="27" transform="matrix(1 0 0 0.999212 132.756 84)">ui</text><path d="M0.0094232-0.998853 8.00025-0.923468 7.9814 1.07424-0.0094232 0.998853ZM13.9934-0.866928 21.9842-0.791543 21.9653 1.20616 13.9745 1.13078ZM27.9773-0.735003 35.9681-0.659618 35.9493 1.33809 27.9585 1.2627ZM41.9613-0.603079 49.9521-0.527693 49.9332 1.47001 41.9424 1.39463ZM55.9452-0.471154 63.936-0.395768 63.9172 1.60194 55.9263 1.52655ZM69.9291-0.339229 77.92-0.263843 77.9011 1.73386 69.9103 1.65848ZM83.9131-0.207304 91.9039-0.131919 91.8851 1.86579 83.8942 1.7904ZM97.897-0.0753795 105.888 6.14479e-06 105.869 1.99771 97.8782 1.92233ZM105.878-5.66076 119.133 1.1239 105.752 7.65728Z" transform="matrix(1.00079 0 0 -1 213 78.0632)"/><path d="M0.0094232-0.998853 8.00025-0.923468 7.9814 1.07424-0.0094232 0.998853ZM13.9934-0.866928 21.9842-0.791543 21.9653 1.20616 13.9745 1.13078ZM27.9773-0.735003 35.9681-0.659618 35.9493 1.33809 27.9585 1.2627ZM41.9613-0.603079 49.9521-0.527693 49.9332 1.47001 41.9424 1.39463ZM55.9452-0.471154 63.936-0.395768 63.9172 1.60194 55.9263 1.52655ZM69.9291-0.339229 77.92-0.263843 77.9011 1.73386 69.9103 1.65848ZM83.9131-0.207304 91.9039-0.131919 91.8851 1.86579 83.8942 1.7904ZM97.897-0.0753795 105.888 6.14479e-06 105.869 1.99771 97.8782 1.92233ZM105.878-5.66076 119.133 1.1239 105.752 7.65728Z" transform="matrix(1.00079 0 0 -1 469 77.064)"/><g clip-path="url(#clip10)"><g clip-path="url(#clip11)"><g clip-path="url(#clip12)"><path d="M28.8835 146.383 155.971 146.383C160.219 146.37 163.659 142.929 163.673 138.681L163.673 61.6354C163.659 57.3872 160.219 53.9468 155.971 53.9331L90.5015 53.9331 69.3203 39.8765C68.108 38.948 66.6099 38.4714 65.0841 38.5286L28.8835 38.5286C24.6349 38.5413 21.1939 41.9823 21.1812 46.2309L21.1812 138.679C21.1928 142.929 24.6341 146.371 28.8835 146.383ZM25.0323 46.227C25.0323 44.1001 26.7565 42.3759 28.8835 42.3759L65.0841 42.3759C65.7076 42.332 66.3286 42.4914 66.8537 42.8303L67.0154 42.9651 67.1907 43.0807 88.3719 57.1373 89.3347 57.7804 155.971 57.7804C158.098 57.7804 159.822 59.5046 159.822 61.6316L159.822 138.679C159.822 140.806 158.098 142.53 155.971 142.53L28.8835 142.53C26.7565 142.53 25.0323 140.806 25.0323 138.679Z" transform="matrix(1.00079 0 0 1 821 -14.9882)"/></g></g></g><text font-family="Calibri,Calibri_MSFontService,sans-serif" font-weight="400" font-size="27" transform="matrix(1 0 0 0.999212 854.893 86)">algorithms</text><path d="M0.0094232-0.998853 8.00025-0.923468 7.9814 1.07424-0.0094232 0.998853ZM13.9934-0.866928 21.9842-0.791543 21.9653 1.20616 13.9745 1.13078ZM27.9773-0.735003 35.9681-0.659618 35.9493 1.33809 27.9585 1.2627ZM41.9613-0.603079 49.9521-0.527693 49.9332 1.47001 41.9424 1.39463ZM55.9452-0.471154 63.936-0.395768 63.9172 1.60194 55.9263 1.52655ZM69.9291-0.339229 77.92-0.263843 77.9011 1.73386 69.9103 1.65848ZM83.9131-0.207304 91.9039-0.131919 91.8851 1.86579 83.8942 1.7904ZM97.897-0.0753795 105.888 6.14479e-06 105.869 1.99771 97.8782 1.92233ZM105.878-5.66076 119.133 1.1239 105.752 7.65728Z" transform="matrix(1.00079 0 0 -1 725 77.064)"/></g></svg>